<?xml version="1.0" encoding="UTF-8" standalone="no" ?>
<!DOCTYPE svg PUBLIC "-//W3C//DTD SVG 1.1//EN" "http://www.w3.org/Graphics/SVG/1.1/DTD/svg11.dtd">
<svg xmlns="http://www.w3.org/2000/svg" xmlns:xlink="http://www.w3.org/1999/xlink" version="1.1" width="500" height="500" viewBox="0 0 500 500" xml:space="preserve">
<desc>Created with Fabric.js 4.6.0</desc>
<defs>
</defs>
<g transform="matrix(0.84 0 0 0.84 250 250)" id="EXvOmaONnQ4veQBl9OUmv"  >
<path style="stroke: rgb(225,225,225); stroke-width: 16; stroke-dasharray: none; stroke-linecap: butt; stroke-dashoffset: 0; stroke-linejoin: miter; stroke-miterlimit: 4; fill: none; fill-rule: nonzero; opacity: 1;" vector-effect="non-scaling-stroke"  transform=" translate(0, 0)" d="M 0 -217.68707 C 120.16326 -217.68707 217.68707 -120.16326000000001 217.68707 0 C 217.68707 120.16326 120.16326000000001 217.68707 0 217.68707 C -120.16326 217.68707 -217.68707 120.16326000000001 -217.68707 0 C -217.68707 -120.16326 -120.16326000000001 -217.68707 0 -217.68707 z" stroke-linecap="round" />
</g>
<g transform="matrix(0.24 0 0 0.24 250 250)" id="aXUvYOftPdLULEdFd9Hga"  >
<path style="stroke: rgb(225,225,225); stroke-width: 16; stroke-dasharray: none; stroke-linecap: butt; stroke-dashoffset: 0; stroke-linejoin: miter; stroke-miterlimit: 4; fill: none; fill-rule: nonzero; opacity: 1;" vector-effect="non-scaling-stroke"  transform=" translate(0, 0)" d="M 0 -217.68707 C 120.16326 -217.68707 217.68707 -120.16326000000001 217.68707 0 C 217.68707 120.16326 120.16326000000001 217.68707 0 217.68707 C -120.16326 217.68707 -217.68707 120.16326000000001 -217.68707 0 C -217.68707 -120.16326 -120.16326000000001 -217.68707 0 -217.68707 z" stroke-linecap="round" />
</g>
<g transform="matrix(0.93 0 0 1 130.88 250)" id="ocmAJK9kCbFW3LhHBeFZh"  >
<path style="stroke: rgb(225,225,225); stroke-width: 16; stroke-dasharray: none; stroke-linecap: butt; stroke-dashoffset: 0; stroke-linejoin: miter; stroke-miterlimit: 4; fill: rgb(255,255,255); fill-opacity: 0; fill-rule: nonzero; opacity: 1;" vector-effect="non-scaling-stroke"  transform=" translate(0, 0)" d="M -64.28571 0 C 73.80953 0 32.14286 0 64.28572 0" stroke-linecap="round" />
</g>
<g transform="matrix(0.91 0 0 1 368.19 250)" id="_-wjaXqQiKQJqPVJ7kWyD"  >
<path style="stroke: rgb(225,225,225); stroke-width: 16; stroke-dasharray: none; stroke-linecap: butt; stroke-dashoffset: 0; stroke-linejoin: miter; stroke-miterlimit: 4; fill: rgb(255,255,255); fill-opacity: 0; fill-rule: nonzero; opacity: 1;" vector-effect="non-scaling-stroke"  transform=" translate(0, 0)" d="M -64.28571 0 C 73.80953 0 32.14286 0 64.28572 0" stroke-linecap="round" />
</g>
</svg>